<svg width="360" height="408" viewBox="0 0 360 408" fill="none" xmlns="http://www.w3.org/2000/svg">
<path fill-rule="evenodd" clip-rule="evenodd" d="M0 204V408H180H360V204V0H180H0V204Z" fill="white"/>
<path fill-rule="evenodd" clip-rule="evenodd" d="M0 204V408H180H360V204V0H180H0V204ZM155.19 44.75L155.5 48.5L167 49L178.5 49.5L178.816 52.25L179.133 55H156.127H133.121L132.81 51.25L132.5 47.5L125.201 47.205L117.903 46.91L117.344 45.455L116.786 44L117.362 42.5L117.937 41H136.408H154.879L155.19 44.75ZM250.81 44.186L251.121 46.872L247.31 47.186L243.5 47.5L243.189 51.269L242.877 55.037L220.189 54.769L197.5 54.5V52V49.5L205 49L212.5 48.5L212.812 44.728L213.123 40.956L231.812 41.228L250.5 41.5L250.81 44.186ZM107.19 52.75L107.5 56.5L115.25 56.792L123 57.084V59.982V62.879L119.25 63.19L115.5 63.5L115.192 67.209L114.884 70.918L107.192 71.209L99.5 71.5L99.19 75.25L98.879 79H92H85.121L84.81 75.25L84.5 71.5L80.69 71.186L76.879 70.872L77.19 68.186L77.5 65.5L81 65L84.5 64.5L84.807 60.807L85.114 57.114L88.807 56.807L92.5 56.5L92.81 52.75L93.121 49H100H106.879L107.19 52.75ZM275.19 52.75L275.5 56.5L279.193 56.807L282.886 57.114L283.193 60.807L283.5 64.5L287.31 64.814L291.121 65.128L290.81 67.814L290.5 70.5L287 71L283.5 71.5L283.19 75.25L282.879 79H276H269.121L268.81 75.25L268.5 71.5L260.75 71.208L253 70.916V64.018V57.121L256.75 56.81L260.5 56.5L260.81 52.75L261.121 49H268H274.879L275.19 52.75ZM219.19 76.75L219.5 80.5L231.191 80.781L242.883 81.062L243.191 84.781L243.5 88.5L247.25 88.81L251 89.121V93.06V97H254.94H258.879L259.19 100.75L259.5 104.5L263.25 104.81L267 105.121V124V142.879L263.25 143.19L259.5 143.5L259.209 151.192L258.918 158.884L255.209 159.192L251.5 159.5L251.193 163.193L250.886 166.886L247.193 167.193L243.5 167.5L243.193 171.193L242.886 174.886L239.193 175.193L235.5 175.5L235.192 179.209L234.884 182.918L227.192 183.209L219.5 183.5L219.19 187.25L218.879 191H184H149.121L148.81 187.25L148.5 183.5L140.808 183.209L133.116 182.918L132.808 179.209L132.5 175.5L128.807 175.193L125.114 174.886L124.807 171.193L124.5 167.5L120.807 167.193L117.114 166.886L116.807 163.193L116.5 159.5L112.791 159.192L109.082 158.884L108.791 151.192L108.5 143.5L104.75 143.19L101 142.879V124V105.121L104.75 104.81L108.5 104.5L108.81 100.75L109.121 97H113.06H117V93V89H121H125V85.032V81.063L136.75 80.782L148.5 80.5L148.81 76.75L149.121 73H184H218.879L219.19 76.75ZM131 90.961V95H127H123V98.94V102.879L119.25 103.19L115.5 103.5V112V120.5L119.193 120.807L122.886 121.114L123.193 124.807L123.5 128.5L127.193 128.807L130.886 129.114L131.193 132.807L131.5 136.5H140H148.5L148.807 132.807L149.114 129.114L152.807 128.807L156.5 128.5L156.807 124.807L157.114 121.114L160.807 120.807L164.5 120.5V112V103.5L160.807 103.193L157.114 102.886L156.807 99.193L156.5 95.5L152.807 95.193L149.114 94.886L148.807 91.193L148.5 87.5L139.75 87.211L131 86.922V90.961ZM219.667 87.667L219 88.333V91.606V94.879L215.25 95.19L211.5 95.5L211.193 99.193L210.886 102.886L207.193 103.193L203.5 103.5L203.211 112.25L202.922 121H206.901H210.879L211.19 124.75L211.5 128.5L215.193 128.807L218.886 129.114L219.193 132.807L219.5 136.5H228H236.5L236.807 132.807L237.114 129.114L240.807 128.807L244.5 128.5L244.807 124.807L245.114 121.114L248.807 120.807L252.5 120.5V112V103.5L248.807 103.193L245.114 102.886L244.807 99.193L244.5 95.5L240.75 95.19L237 94.879V90.94V87H228.667H220.333L219.667 87.667ZM75 93L75.5 96.5L79.25 96.81L83 97.121V104.039V110.958L63.25 111.229L43.5 111.5V116V120.5L59.191 120.775L74.882 121.05L75.191 124.775L75.5 128.5L79.219 128.809L82.938 129.117L83.219 140.809L83.5 152.5L87 153L90.5 153.5V156V158.5L71.812 158.772L53.123 159.044L52.812 155.272L52.5 151.5L48.807 151.193L45.114 150.886L44.807 147.193L44.5 143.5L40.807 143.193L37.114 142.886L36.807 139.193L36.5 135.5L28.75 135.208L21 134.916V124.018V113.121L24.75 112.81L28.5 112.5L28.807 108.807L29.114 105.114L32.807 104.807L36.5 104.5L36.807 100.807L37.114 97.114L40.807 96.807L44.5 96.5L44.812 92.724L45.124 88.947L59.812 89.224L74.5 89.5L75 93ZM323.19 92.75L323.5 96.5L327.193 96.807L330.886 97.114L331.193 100.807L331.5 104.5L335.193 104.807L338.886 105.114L339.193 108.807L339.5 112.5L343.25 112.81L347 113.121V124.018V134.916L339.25 135.208L331.5 135.5L331.193 139.193L330.886 142.886L327.193 143.193L323.5 143.5L323.193 147.193L322.886 150.886L319.193 151.193L315.5 151.5L315.188 155.272L314.877 159.044L296.188 158.772L277.5 158.5L277.19 155.814L276.879 153.128L280.69 152.814L284.5 152.5L284.781 140.809L285.062 129.117L288.781 128.809L292.5 128.5L292.809 124.775L293.118 121.05L308.809 120.775L324.5 120.5V116V111.5L304.75 111.229L285 110.958V104.039V97.121L288.75 96.81L292.5 96.5L292.81 92.75L293.121 89H308H322.879L323.19 92.75ZM147.19 100.75L147.5 104.5L151.25 104.81L155 105.121V112V118.879L151.25 119.19L147.5 119.5L147.19 123.25L146.879 127H140H133.121L132.81 123.25L132.5 119.5L128.75 119.19L125 118.879V111.94V105H128H131V109.055V113.11L135.75 112.805L140.5 112.5V108V103.5L137.193 103.182L133.885 102.865L133.336 101.432L132.786 100L133.362 98.5L133.937 97H140.408H146.879L147.19 100.75ZM234.5 100V102.5L231 103L227.5 103.5V108V112.5L232.187 112.802L236.873 113.104L237.187 109.302L237.5 105.5L240.25 105.184L243 104.867V111.873V118.879L239.25 119.19L235.5 119.5L235.19 123.25L234.879 127H228H221.121L220.81 123.25L220.5 119.5L216.75 119.19L213 118.879V112V105.121L216.75 104.81L220.5 104.5L220.813 100.706L221.126 96.911L227.813 97.206L234.5 97.5V100ZM171.696 119.637L171 120.333V123.667V127H166.976H162.952L163.226 143.75L163.5 160.5H184H204.5V144V127.5L200.807 127.193L197.114 126.886L196.807 123.193L196.5 119.5L184.446 119.221L172.392 118.942L171.696 119.637ZM194.5 132V134.5L184.232 134.785L173.964 135.07L173.375 133.535L172.786 132L173.375 130.465L173.964 128.93L184.232 129.215L194.5 129.5V132ZM98.783 180.188L99.066 190.875L95.283 191.188L91.5 191.5L91.193 195.193L90.886 198.886L87.193 199.193L83.5 199.5V208V216.5H88H92.5L92.791 208.808L93.082 201.116L96.791 200.808L100.5 200.5L100.81 196.75L101.121 193H108H114.879L115.19 196.75L115.5 200.5L127.191 200.781L138.883 201.062L139.191 204.781L139.5 208.5L159 209L178.5 209.5V212V214.5L167 215L155.5 215.5L155.191 219.225L154.882 222.95L139.191 223.225L123.5 223.5L123.19 227.25L122.879 231H100H77.121L76.81 227.25L76.5 223.5L68.75 223.208L61 222.916V208.018V193.121L64.75 192.81L68.5 192.5L68.807 188.807L69.114 185.114L72.807 184.807L76.5 184.5L76.808 180.791L77.116 177.082L84.808 176.791L92.5 176.5L92.814 172.69L93.128 168.879L95.814 169.19L98.5 169.5L98.783 180.188ZM275 173L275.5 176.5L283.192 176.791L290.884 177.082L291.192 180.791L291.5 184.5L295.193 184.807L298.886 185.114L299.193 188.807L299.5 192.5L303.25 192.81L307 193.121V208.018V222.916L299.25 223.208L291.5 223.5L291.19 227.25L290.879 231H268H245.121L244.81 227.25L244.5 223.5L228.809 223.225L213.118 222.95L212.809 219.225L212.5 215.5L201 215L189.5 214.5L189.186 211.771L188.871 209.043L208.686 208.771L228.5 208.5L228.809 204.781L229.117 201.062L240.809 200.781L252.5 200.5L252.81 196.75L253.121 193H260H266.879L267.19 196.75L267.5 200.5L271.209 200.808L274.918 201.116L275.209 208.808L275.5 216.5H280H284.5V208V199.5L280.807 199.193L277.114 198.886L276.807 195.193L276.5 191.5L272.75 191.19L269 190.879V180.606V170.333L269.709 169.624L270.418 168.916L272.459 169.208L274.5 169.5L275 173ZM179.19 244.75L179.5 248.5L183.25 248.81L187 249.121V256V262.879L183.25 263.19L179.5 263.5L179.193 267.193L178.886 270.886L175.193 271.193L171.5 271.5V280V288.5L175.193 288.807L178.886 289.114L179.193 292.807L179.5 296.5L183.193 296.807L186.886 297.114L187.193 300.807L187.5 304.5L191.209 304.808L194.918 305.116L195.209 312.808L195.5 320.5L199.209 320.808L202.918 321.116L203.209 328.808L203.5 336.5L207.25 336.81L211 337.121V348V358.879L207.25 359.19L203.5 359.5L203.19 363.25L202.879 367H184H165.121L164.81 363.25L164.5 359.5L160.69 359.186L156.879 358.872L157.19 356.186L157.5 353.5L161 353L164.5 352.5L164.807 348.807L165.114 345.114L168.807 344.807L172.5 344.5L172.807 340.807L173.114 337.114L176.807 336.807L180.5 336.5V328V319.5L176.807 319.193L173.114 318.886L172.807 315.193L172.5 311.5L168.807 311.193L165.114 310.886L164.807 307.193L164.5 303.5L160.791 303.192L157.082 302.884L156.791 295.192L156.5 287.5L152.75 287.19L149 286.879V276V265.121L152.75 264.81L156.5 264.5L156.791 256.808L157.082 249.116L160.791 248.808L164.5 248.5L164.81 244.75L165.121 241H172H178.879L179.19 244.75Z" fill="#A9A9A9"/>
<path fill-rule="evenodd" clip-rule="evenodd" d="M0 204V408H180H360V204V0H180H0V204ZM156 44L156.5 47.5L168 48L179.5 48.5V52V55.5H156H132.5L132 52L131.5 48.5L124 48L116.5 47.5L116.171 45.177L115.842 42.855L116.398 41.406L116.954 39.957L136.227 40.228L155.5 40.5L156 44ZM251.5 44V47.5L248 48L244.5 48.5L244 52L243.5 55.5H220H196.5V52V48.5L204 48L211.5 47.5L211.799 45L212.098 42.5L212.526 41.228L212.954 39.957L232.227 40.228L251.5 40.5V44ZM108 52L108.5 55.5L116 56L123.5 56.5V60V63.5L120 64L116.5 64.5L116 68L115.5 71.5L108 72L100.5 72.5L100 76L99.5 79.5H92H84.5L84 76L83.5 72.5L80 72L76.5 71.5V68V64.5L80 64L83.5 63.5L84 60L84.5 56.5L88 56L91.5 55.5L91.799 53L92.098 50.5L92.535 49.206L92.971 47.912L100.236 48.206L107.5 48.5L108 52ZM276 52L276.5 55.5L280 56L283.5 56.5L284 60L284.5 63.5L288 64L291.5 64.5V68V71.5L288 72L284.5 72.5L284 76L283.5 79.5H276H268.5L268 76L267.5 72.5L260 72L252.5 71.5V64V56.5L256 56L259.5 55.5L259.799 53L260.098 50.5L260.535 49.206L260.971 47.912L268.236 48.206L275.5 48.5L276 52ZM220 76L220.5 79.5L232 80L243.5 80.5L244 84L244.5 87.5L248 88L251.5 88.5L252 92L252.5 95.5L256 96L259.5 96.5L260 100L260.5 103.5L264 104L267.5 104.5V124V143.5L264 144L260.5 144.5L260 152L259.5 159.5L256 160L252.5 160.5L252 164L251.5 167.5L248 168L244.5 168.5L244 172L243.5 175.5L240 176L236.5 176.5L236 180L235.5 183.5L228 184L220.5 184.5L220 188L219.5 191.5H184H148.5L148 188L147.5 184.5L140 184L132.5 183.5L132 180L131.5 176.5L128 176L124.5 175.5L124 172L123.5 168.5L120 168L116.5 167.5L116 164L115.5 160.5L112 160L108.5 159.5L108 152L107.5 144.5L104 144L100.5 143.5V124V104.5L104 104L107.5 103.5L108 100L108.5 96.5L112 96L115.5 95.5L116 92L116.5 88.5L120 88L123.5 87.5L124 84L124.5 80.5L136 80L147.5 79.5L147.799 77L148.098 74.5L148.523 73.237L148.947 71.974L184.224 72.237L219.5 72.5L220 76ZM76 92L76.5 95.5L80 96L83.5 96.5V104V111.5L64 112L44.5 112.5V116V119.5L60 120L75.5 120.5L76 124L76.5 127.5L80 128L83.5 128.5L84 140L84.5 151.5L88 152L91.5 152.5V156V159.5H72H52.5L52 156L51.5 152.5L48 152L44.5 151.5L44 148L43.5 144.5L40 144L36.5 143.5L36 140L35.5 136.5L28 136L20.5 135.5V124V112.5L24 112L27.5 111.5L28 108L28.5 104.5L32 104L35.5 103.5L36 100L36.5 96.5L40 96L43.5 95.5L43.799 93L44.098 90.5L44.528 89.224L44.957 87.948L60.229 88.224L75.5 88.5L76 92ZM132.706 88.627L132 89.333V92.606V95.879L128.25 96.19L124.5 96.5L124.193 100.193L123.886 103.886L120.193 104.193L116.5 104.5V112V119.5L120.193 119.807L123.886 120.114L124.193 123.807L124.5 127.5L128.193 127.807L131.886 128.114L132.193 131.807L132.5 135.5H140H147.5L147.81 131.75L148.121 128H140.121H132.121L131.81 124.25L131.5 120.5L127.75 120.19L124 119.879V111.94V104H127.94H131.879L132.19 107.75L132.5 111.5H136H139.5V108V104.5L135.75 104.19L132 103.879V99.94V96H139.94H147.879L148.19 99.75L148.5 103.5L152.25 103.81L156 104.121V112V119.879L152.25 120.19L148.5 120.5V124V127.5H152H155.5L155.807 123.807L156.114 120.114L159.807 119.807L163.5 119.5V112V104.5L159.807 104.193L156.114 103.886L155.807 100.193L155.5 96.5L151.807 96.193L148.114 95.886L147.807 92.193L147.5 88.5L140.456 88.21L133.413 87.921L132.706 88.627ZM220.706 88.627L220 89.333V92.606V95.879L216.25 96.19L212.5 96.5L212.193 100.193L211.886 103.886L208.193 104.193L204.5 104.5V112V119.5L208.193 119.807L211.886 120.114L212.193 123.807L212.5 127.5H216H219.5V124V120.5L215.75 120.19L212 119.879V112V104.121L215.75 103.81L219.5 103.5L219.81 99.75L220.121 96H228.06H236V99.94V103.879L232.25 104.19L228.5 104.5V108V111.5H232H235.5L235.81 107.75L236.121 104H240.06H244V111.94V119.879L240.25 120.19L236.5 120.5V124V127.5H240H243.5L243.807 123.807L244.114 120.114L247.807 119.807L251.5 119.5V112V104.5L247.807 104.193L244.114 103.886L243.807 100.193L243.5 96.5L239.807 96.193L236.114 95.886L235.807 92.193L235.5 88.5L228.456 88.21L221.413 87.921L220.706 88.627ZM324 92L324.5 95.5L328 96L331.5 96.5L332 100L332.5 103.5L336 104L339.5 104.5L340 108L340.5 111.5L344 112L347.5 112.5V124V135.5L340 136L332.5 136.5L332 140L331.5 143.5L328 144L324.5 144.5L324 148L323.5 151.5L320 152L316.5 152.5L316 156L315.5 159.5H296H276.5V156V152.5L280 152L283.5 151.5L284 140L284.5 128.5L288 128L291.5 127.5L292 124L292.5 120.5L308 120L323.5 119.5V116V112.5L304 112L284.5 111.5V104V96.5L288 96L291.5 95.5L291.799 93L292.098 90.5L292.528 89.224L292.957 87.948L308.229 88.224L323.5 88.5L324 92ZM172.698 120.636L172 121.333V124.606V127.879L168.25 128.19L164.5 128.5V144V159.5H184H203.5V144V128.5L199.807 128.193L196.114 127.886L195.807 124.193L195.5 120.5L184.448 120.219L173.395 119.938L172.698 120.636ZM195.81 131.75L195.5 135.5H184H172.5L172.19 131.75L171.879 128H184H196.121L195.81 131.75ZM220.19 131.75L220.5 135.5H228H235.5L235.81 131.75L236.121 128H228H219.879L220.19 131.75ZM99.781 180.209L100.063 191.917L107.781 192.209L115.5 192.5L116 196L116.5 199.5L128 200L139.5 200.5L140 204L140.5 207.5L160 208L179.5 208.5V212V215.5L168 216L156.5 216.5L156 220L155.5 223.5L140 224L124.5 224.5L124 228L123.5 231.5H100H76.5L76 228L75.5 224.5L68 224L60.5 223.5V208V192.5L64 192L67.5 191.5L68 188L68.5 184.5L72 184L75.5 183.5L76 180L76.5 176.5L84 176L91.5 175.5L91.799 173L92.098 170.5L92.542 169.186L92.986 167.872L96.243 168.186L99.5 168.5L99.781 180.209ZM276 172L276.5 175.5L284 176L291.5 176.5L292 180L292.5 183.5L296 184L299.5 184.5L300 188L300.5 191.5L304 192L307.5 192.5V208V223.5L300 224L292.5 224.5L292 228L291.5 231.5H268H244.5L244 228L243.5 224.5L228 224L212.5 223.5L212 220L211.5 216.5L200 216L188.5 215.5V212V208.5L208 208L227.5 207.5L228 204L228.5 200.5L240 200L251.5 199.5L252 196L252.5 192.5L260.25 192.208L268 191.916V180.625V169.333L268.714 168.619L269.428 167.905L272.464 168.203L275.5 168.5L276 172ZM92.667 192.667L92 193.333V196.606V199.879L88.25 200.19L84.5 200.5V208V215.5H88H91.5L91.791 207.808L92.082 200.116L95.791 199.808L99.5 199.5L99.81 195.75L100.121 192H96.727H93.333L92.667 192.667ZM268.186 195.686L268.5 199.5L272.209 199.808L275.918 200.116L276.209 207.808L276.5 215.5H280H283.5V208V200.5L279.807 200.193L276.114 199.886L275.807 196.193L275.5 192.5L271.686 192.186L267.872 191.872L268.186 195.686ZM180 244L180.5 247.5L184 248L187.5 248.5V256V263.5L184 264L180.5 264.5L180 268L179.5 271.5L176 272L172.5 272.5V280V287.5L176 288L179.5 288.5L180 292L180.5 295.5L184 296L187.5 296.5L188 300L188.5 303.5L192 304L195.5 304.5L196 312L196.5 319.5L200 320L203.5 320.5L204 328L204.5 335.5L208 336L211.5 336.5V348V359.5L208 360L204.5 360.5L204 364L203.5 367.5H184H164.5L164 364L163.5 360.5L160 360L156.5 359.5V356V352.5L160 352L163.5 351.5L164 348L164.5 344.5L168 344L171.5 343.5L172 340L172.5 336.5L176 336L179.5 335.5V328V320.5L176 320L172.5 319.5L172 316L171.5 312.5L168 312L164.5 311.5L164 308L163.5 304.5L160 304L156.5 303.5L156 296L155.5 288.5L152 288L148.5 287.5V276V264.5L152 264L155.5 263.5L156 256L156.5 248.5L160 248L163.5 247.5L163.799 245L164.098 242.5L164.535 241.206L164.971 239.912L172.236 240.206L179.5 240.5L180 244Z" fill="#575757"/>
<path fill-rule="evenodd" clip-rule="evenodd" d="M0 204V408H180H360V204V0H180H0V204ZM156.809 43.219L157.117 46.938L168.809 47.219L180.5 47.5V52V56.5H156H131.5L131.192 52.791L130.884 49.082L123.192 48.791L115.5 48.5L115.18 45.155L114.859 41.81L115.406 40.384L115.953 38.958L136.227 39.229L156.5 39.5L156.809 43.219ZM252.5 44V48.5L248.807 48.807L245.114 49.114L244.807 52.807L244.5 56.5H220H195.5V52V47.5L203.25 47.208L211 46.916V43.625V40.333L211.687 39.647L212.374 38.96L232.437 39.23L252.5 39.5V44ZM108.808 51.209L109.116 54.918L116.808 55.209L124.5 55.5V60V64.5L120.807 64.807L117.114 65.114L116.807 68.807L116.5 72.5L108.808 72.791L101.116 73.082L100.808 76.791L100.5 80.5H92H83.5L83.193 76.807L82.886 73.114L79.193 72.807L75.5 72.5V68V63.5L79.193 63.193L82.886 62.886L83.193 59.193L83.5 55.5L87.25 55.19L91 54.879V51.606V48.333L91.704 47.63L92.408 46.926L100.454 47.213L108.5 47.5L108.808 51.209ZM276.807 51.193L277.114 54.886L280.807 55.193L284.5 55.5L284.807 59.193L285.114 62.886L288.807 63.193L292.5 63.5V68V72.5L288.807 72.807L285.114 73.114L284.807 76.807L284.5 80.5H276H267.5L267.192 76.791L266.884 73.082L259.192 72.791L251.5 72.5V64V55.5L255.25 55.19L259 54.879V51.606V48.333L259.704 47.63L260.408 46.926L268.454 47.213L276.5 47.5L276.807 51.193ZM220.809 75.219L221.117 78.938L232.809 79.219L244.5 79.5L244.807 83.193L245.114 86.886L248.807 87.193L252.5 87.5L252.807 91.193L253.114 94.886L256.807 95.193L260.5 95.5L260.807 99.193L261.114 102.886L264.807 103.193L268.5 103.5V124V144.5L264.791 144.808L261.082 145.116L260.791 152.808L260.5 160.5L256.807 160.807L253.114 161.114L252.807 164.807L252.5 168.5L248.807 168.807L245.114 169.114L244.807 172.807L244.5 176.5L240.807 176.807L237.114 177.114L236.807 180.807L236.5 184.5L228.808 184.791L221.116 185.082L220.808 188.791L220.5 192.5H184H147.5L147.192 188.791L146.884 185.082L139.192 184.791L131.5 184.5L131.193 180.807L130.886 177.114L127.193 176.807L123.5 176.5L123.193 172.807L122.886 169.114L119.193 168.807L115.5 168.5L115.193 164.807L114.886 161.114L111.193 160.807L107.5 160.5L107.209 152.808L106.918 145.116L103.209 144.808L99.5 144.5V124V103.5L103.193 103.193L106.886 102.886L107.193 99.193L107.5 95.5L111.193 95.193L114.886 94.886L115.193 91.193L115.5 87.5L119.193 87.193L122.886 86.886L123.193 83.193L123.5 79.5L135.25 79.218L147 78.937V75.635V72.333L147.679 71.654L148.358 70.975L184.429 71.238L220.5 71.5L220.809 75.219ZM76.807 91.193L77.114 94.886L80.807 95.193L84.5 95.5V104V112.5L64.75 112.771L45 113.042V115.996V118.949L60.75 119.225L76.5 119.5L76.807 123.193L77.114 126.886L80.807 127.193L84.5 127.5L84.781 139.191L85.062 150.883L88.781 151.191L92.5 151.5V156V160.5H72H51.5L51.193 156.807L50.886 153.114L47.193 152.807L43.5 152.5L43.193 148.807L42.886 145.114L39.193 144.807L35.5 144.5L35.192 140.791L34.884 137.082L27.192 136.791L19.5 136.5V124V111.5L23.193 111.193L26.886 110.886L27.193 107.193L27.5 103.5L31.193 103.193L34.886 102.886L35.193 99.193L35.5 95.5L39.25 95.19L43 94.879V91.606V88.333L43.691 87.643L44.381 86.952L60.441 87.226L76.5 87.5L76.807 91.193ZM324.807 91.193L325.114 94.886L328.807 95.193L332.5 95.5L332.807 99.193L333.114 102.886L336.807 103.193L340.5 103.5L340.807 107.193L341.114 110.886L344.807 111.193L348.5 111.5V124V136.5L340.808 136.791L333.116 137.082L332.808 140.791L332.5 144.5L328.807 144.807L325.114 145.114L324.807 148.807L324.5 152.5L320.807 152.807L317.114 153.114L316.807 156.807L316.5 160.5H296H275.5V156V151.5L279.219 151.191L282.938 150.883L283.219 139.191L283.5 127.5L287.193 127.193L290.886 126.886L291.193 123.193L291.5 119.5L307.314 119.224L323.128 118.949L322.814 116.224L322.5 113.5L303 113L283.5 112.5V104V95.5L287.25 95.19L291 94.879V91.606V88.333L291.691 87.643L292.381 86.952L308.441 87.226L324.5 87.5L324.807 91.193ZM133.38 90.452L132.786 92L133.38 93.548L133.974 95.096L140.237 94.798L146.5 94.5V92V89.5L140.237 89.202L133.974 88.904L133.38 90.452ZM221.38 90.452L220.786 92L221.362 93.5L221.937 95H228.535H235.133L234.816 92.25L234.5 89.5L228.237 89.202L221.974 88.904L221.38 90.452ZM125.389 98.43L124.786 100L125.389 101.57L125.991 103.14L128.246 102.82L130.5 102.5V100V97.5L128.246 97.18L125.991 96.86L125.389 98.43ZM149.389 98.43L148.786 100L149.389 101.57L149.991 103.14L152.246 102.82L154.5 102.5V100V97.5L152.246 97.18L149.991 96.86L149.389 98.43ZM213.389 98.43L212.786 100L213.389 101.57L213.991 103.14L216.246 102.82L218.5 102.5V100V97.5L216.246 97.18L213.991 96.86L213.389 98.43ZM237.389 98.43L236.786 100L237.389 101.57L237.991 103.14L240.246 102.82L242.5 102.5V100V97.5L240.246 97.18L237.991 96.86L237.389 98.43ZM117 112V119H120H123V112V105H120H117V112ZM133.389 106.43L132.786 108L133.389 109.57L133.991 111.14L136.246 110.82L138.5 110.5V108V105.5L136.246 105.18L133.991 104.86L133.389 106.43ZM157.667 105.667L157 106.333V112.733V119.133L159.75 118.816L162.5 118.5L162.796 111.75L163.091 105H160.712H158.333L157.667 105.667ZM205.667 105.667L205 106.333V112.733V119.133L207.75 118.816L210.5 118.5L210.796 111.75L211.091 105H208.712H206.333L205.667 105.667ZM229.389 106.43L228.786 108L229.389 109.57L229.991 111.14L232.246 110.82L234.5 110.5V108V105.5L232.246 105.18L229.991 104.86L229.389 106.43ZM245.667 105.667L245 106.333V112.667V119H248H251V112V105H248.667H246.333L245.667 105.667ZM125.389 122.43L124.786 124L125.389 125.57L125.991 127.14L128.246 126.82L130.5 126.5V124V121.5L128.246 121.18L125.991 120.86L125.389 122.43ZM149.389 122.43L148.786 124L149.389 125.57L149.991 127.14L152.246 126.82L154.5 126.5V124V121.5L152.246 121.18L149.991 120.86L149.389 122.43ZM173.375 122.465L172.786 124L173.375 125.535L173.964 127.07L184.232 126.785L194.5 126.5V124V121.5L184.232 121.215L173.964 120.93L173.375 122.465ZM213.389 122.43L212.786 124L213.389 125.57L213.991 127.14L216.246 126.82L218.5 126.5V124V121.5L216.246 121.18L213.991 120.86L213.389 122.43ZM237.389 122.43L236.786 124L237.389 125.57L237.991 127.14L240.246 126.82L242.5 126.5V124V121.5L240.246 121.18L237.991 120.86L237.389 122.43ZM133.184 131.75L133.5 134.5H140H146.5L146.816 131.75L147.133 129H140H132.867L133.184 131.75ZM165 144V159H184.027H203.053L202.777 144.25L202.5 129.5L199.814 129.19L197.128 128.879L196.814 132.69L196.5 136.5L183.75 136.78L171 137.06V133.03V129H168H165V144ZM221.179 131.703L221.5 134.5H228H234.5V132V129.5L227.679 129.203L220.858 128.905L221.179 131.703ZM100.781 179.209L101.063 190.917L108.781 191.209L116.5 191.5L116.809 195.219L117.117 198.938L128.809 199.219L140.5 199.5L140.809 203.229L141.118 206.958L160.809 207.229L180.5 207.5V212V216.5L168.809 216.781L157.117 217.062L156.809 220.781L156.5 224.5L140.809 224.775L125.118 225.05L124.809 228.775L124.5 232.5H100H75.5L75.192 228.791L74.884 225.082L67.192 224.791L59.5 224.5V208V191.5L63.193 191.193L66.886 190.886L67.193 187.193L67.5 183.5L71.193 183.193L74.886 182.886L75.193 179.193L75.5 175.5L83.25 175.208L91 174.916V171.625V168.333L91.714 167.62L92.427 166.906L96.464 167.203L100.5 167.5L100.781 179.209ZM276.808 171.209L277.116 174.918L284.808 175.209L292.5 175.5L292.807 179.193L293.114 182.886L296.807 183.193L300.5 183.5L300.807 187.193L301.114 190.886L304.807 191.193L308.5 191.5V208V224.5L300.808 224.791L293.116 225.082L292.808 228.791L292.5 232.5H268H243.5L243.191 228.775L242.882 225.05L227.191 224.775L211.5 224.5L211.191 220.781L210.883 217.062L199.191 216.781L187.5 216.5V212V207.5L207.191 207.229L226.882 206.958L227.191 203.229L227.5 199.5L239.191 199.219L250.883 198.938L251.191 195.219L251.5 191.5L259.25 191.208L267 190.916V179.625V168.333L267.714 167.62L268.427 166.906L272.464 167.203L276.5 167.5L276.808 171.209ZM93.389 194.43L92.786 196L93.389 197.57L93.991 199.14L96.246 198.82L98.5 198.5V196V193.5L96.246 193.18L93.991 192.86L93.389 194.43ZM269.389 194.43L268.786 196L269.389 197.57L269.991 199.14L272.246 198.82L274.5 198.5V196V193.5L272.246 193.18L269.991 192.86L269.389 194.43ZM85 207.934V215H88.046H91.091L90.796 208.25L90.5 201.5L87.75 201.184L85 200.867V207.934ZM277.667 201.667L277 202.333V208.733V215.133L279.75 214.816L282.5 214.5L282.796 207.75L283.091 201H280.712H278.333L277.667 201.667ZM180.807 243.193L181.114 246.886L184.807 247.193L188.5 247.5V256V264.5L184.807 264.807L181.114 265.114L180.807 268.807L180.5 272.5L176.75 272.81L173 273.121V280V286.879L176.75 287.19L180.5 287.5L180.807 291.193L181.114 294.886L184.807 295.193L188.5 295.5L188.807 299.193L189.114 302.886L192.807 303.193L196.5 303.5L196.791 311.192L197.082 318.884L200.791 319.192L204.5 319.5L204.791 327.192L205.082 334.884L208.791 335.192L212.5 335.5V348V360.5L208.807 360.807L205.114 361.114L204.807 364.807L204.5 368.5H184H163.5L163.193 364.807L162.886 361.114L159.193 360.807L155.5 360.5V356V351.5L159.193 351.193L162.886 350.886L163.193 347.193L163.5 343.5L167.193 343.193L170.886 342.886L171.193 339.193L171.5 335.5L175.25 335.19L179 334.879V328V321.121L175.25 320.81L171.5 320.5L171.193 316.807L170.886 313.114L167.193 312.807L163.5 312.5L163.193 308.807L162.886 305.114L159.193 304.807L155.5 304.5L155.209 296.808L154.918 289.116L151.209 288.808L147.5 288.5V276V263.5L151.209 263.192L154.918 262.884L155.209 255.192L155.5 247.5L159.25 247.19L163 246.879V243.606V240.333L163.704 239.63L164.408 238.926L172.454 239.213L180.5 239.5L180.807 243.193Z" fill="black"/>
</svg>
