<svg width="128" height="40" viewBox="0 0 128 40" fill="none" xmlns="http://www.w3.org/2000/svg">
<rect x="1.36111" y="1.43518" width="125.222" height="37.2037" stroke="#715AB9" stroke-width="2.72222"/>
<path d="M107.357 32.7407V7.33331H120.628V10.1564H111.781V18.6255H118.416V21.4485H111.781V29.9177H120.628V32.7407H107.357Z" fill="#715AB9"/>
<path d="M96.2986 32.7407V10.1564H91.875V7.33331H105.146V10.1564H100.722V32.7407H96.2986Z" fill="#715AB9"/>
<path d="M85.2396 21.4485V10.1564H80.8159V21.4485H85.2396ZM76.3923 32.7407V10.1564H78.6041V7.33331H87.4514V10.1564H89.6632V32.7407H85.2396V24.2716H80.8159V32.7407H76.3923Z" fill="#715AB9"/>
<path d="M60.9097 32.7407V7.33331H65.3333V12.9794H67.5451V18.6255H65.3333V32.7407H60.9097ZM69.7569 32.7407V24.2716H67.5451V18.6255H69.7569V7.33331H74.1805V32.7407H69.7569Z" fill="#715AB9"/>
<path d="M54.2742 29.9177V10.1564H49.8506V29.9177H54.2742ZM47.6388 32.7407V29.9177H45.427V10.1564H47.6388V7.33331H56.486V10.1564H58.6978V29.9177H56.486V32.7407H47.6388Z" fill="#715AB9"/>
<path d="M38.7916 29.9177V10.1564H34.3679V29.9177H38.7916ZM29.9443 32.7407V7.33331H41.0034V10.1564H43.2152V29.9177H41.0034V32.7407H29.9443Z" fill="#715AB9"/>
<path fill-rule="evenodd" clip-rule="evenodd" d="M9.98145 21.8518V32.7407H16.5148H23.0481V21.8518V10.963H16.5148H9.98145V21.8518Z" fill="#715AB9"/>
<path fill-rule="evenodd" clip-rule="evenodd" d="M9.98145 17.0429V23.1228H10.4285H10.8755V22.264V21.4053H11.2848H11.6942L11.7146 20.9759L11.7351 20.5465L12.165 20.5261L12.5948 20.5057V20.0967V19.6878H13.0418H13.4888V20.0985V20.5092L14.7783 20.5279L16.0678 20.5465L16.0883 20.9759L16.1087 21.4053H16.9651H17.8214V21.8518V22.2984H18.6811H19.5407V22.7106V23.1228H20.8453H22.1499L22.1692 23.9987L22.1885 24.8746L22.6183 24.8951L23.0481 24.9155V17.9393V10.963H20.4348H17.8214V12.2682V13.5735H18.2685H18.7155V13.127V12.6804H19.1281H19.5407V12.2682V11.856H20.4363H21.3318L21.3131 13.1442L21.2944 14.4323L20.8646 14.4528L20.4348 14.4732V14.8788V15.2845L20.005 15.3049L19.5751 15.3254L19.5559 16.2013L19.5366 17.0772H19.126H18.7155V17.4894V17.9016H18.2685H17.8214V18.3482V18.7947H15.6584H13.4953L13.4749 18.3653L13.4544 17.936L13.0246 17.9155L12.5948 17.8951V17.4894V17.0837L12.165 17.0633L11.7351 17.0429L11.7164 15.7548L11.6977 14.4666H11.2866H10.8755V13.1613V11.856H11.7351H12.5948V12.2649V12.6739L13.0246 12.6943L13.4544 12.7148L13.4749 13.1442L13.4953 13.5735H13.9014H14.3075L14.328 14.0029L14.3485 14.4323L14.7783 14.4528L15.2081 14.4732V13.1679V11.8626L15.6379 11.8422L16.0678 11.8217L16.0883 11.3923L16.1087 10.963H13.0451H9.98145V17.0429ZM15.2081 24.4624V24.909H14.7611H14.3141V25.3212V25.7334H13.9014H13.4888V27.0387V28.344H13.9014H14.3141V27.0387V25.7334H14.7611H15.2081V25.3212V24.909H16.5148H17.8214V25.3179V25.7268L18.2513 25.7472L18.6811 25.7677L18.6998 27.0558L18.7185 28.344H18.27H17.8214V28.7905V29.2371H16.5148H15.2081V28.7872V28.3374L14.7783 28.3578L14.3485 28.3783L14.328 28.8077L14.3075 29.2371H14.7578H15.2081V29.6848V30.1325L16.9446 30.1141L18.6811 30.0958L18.7016 29.6664L18.722 29.2371H19.1314H19.5407V27.073V24.909H19.1281H18.7155V24.4624V24.0159H16.9618H15.2081V24.4624ZM9.98145 31.4354V32.7407H11.2881H12.5948V32.2942V31.8476H12.1478H11.7007V31.4011V30.9545H11.2881H10.8755V30.5423V30.1301H10.4285H9.98145V31.4354ZM22.1541 30.5423V30.9545H21.7414H21.3288V31.4011V31.8476H20.8818H20.4348V32.2942V32.7407H21.7414H23.0481V31.4354V30.1301H22.6011H22.1541V30.5423Z" fill="black"/>
</svg>
