<svg width="32" height="32" viewBox="0 0 32 32" fill="none" xmlns="http://www.w3.org/2000/svg">
<path d="M22.8572 3.80952H9.1429C6.19739 3.80952 3.80957 6.19734 3.80957 9.14286V22.8571C3.80957 25.8027 6.19739 28.1905 9.1429 28.1905H22.8572C25.8027 28.1905 28.1905 25.8027 28.1905 22.8571V9.14286C28.1905 6.19734 25.8027 3.80952 22.8572 3.80952Z" fill="#FF0000"/>
<path d="M21.2663 10.6362H23.997L23.6069 12.7817H22.9242V20.9737L22.9543 20.9745C23.2634 20.9901 23.5093 21.2458 23.5093 21.5589V22.0465L23.5394 22.0472C23.8486 22.0629 24.0945 22.3186 24.0945 22.6316V23.1192H18.6332V22.6316C18.6332 22.3186 18.879 22.0629 19.1882 22.0472L19.2183 22.0465V21.5589C19.2183 21.2458 19.4641 20.9901 19.7733 20.9745L19.8034 20.9737V16.9752C19.8034 14.8747 18.1006 13.1718 16 13.1718C13.8994 13.1718 12.1966 14.8747 12.1966 16.9752V20.9737L12.2267 20.9745C12.5358 20.9901 12.7817 21.2458 12.7817 21.5589V22.0465L12.8118 22.0472C13.121 22.0629 13.3669 22.3186 13.3669 22.6316V23.1192H7.90552V22.6316C7.90552 22.3186 8.15138 22.0629 8.46057 22.0472L8.49066 22.0465V21.5589C8.49066 21.2458 8.73653 20.9901 9.04571 20.9745L9.0758 20.9737V12.7817H8.39314L8.00304 10.6362H10.7337V8.97829H21.2663V10.6362Z" fill="black"/>
</svg>
