<svg width="24" height="21" viewBox="0 0 24 21" fill="none" xmlns="http://www.w3.org/2000/svg">
<path fill-rule="evenodd" clip-rule="evenodd" d="M11.25 0.0129033C11.1598 0.0238256 10.9066 0.0548582 10.6875 0.0818124C8.64057 0.333635 6.6948 1.23752 5.13258 2.66229C3.54303 4.11196 2.45764 5.9772 1.99867 8.0477C1.89366 8.52154 1.85049 8.83842 1.75134 9.86245L1.72767 10.1068L1.38134 10.2734C0.762756 10.5709 0.253578 11.199 0.0691644 11.892C0.012537 12.1049 0.000583413 12.6654 0.000114644 15.1293C-0.000494756 18.3949 -0.00733878 18.3053 0.285689 18.8858C0.455712 19.2228 0.89823 19.6976 1.22623 19.895C1.69101 20.1748 2.06833 20.2357 3.33532 20.2357H4.45286V15.0582C4.45286 10.6785 4.46392 9.79546 4.52472 9.32749C4.86266 6.72568 6.55154 4.43035 8.89117 3.39297C10.0482 2.87994 10.7586 2.72802 12 2.72802C12.8326 2.72802 13.2115 2.77213 13.8751 2.94623C16.5036 3.63588 18.6215 5.75931 19.2906 8.37584C19.5238 9.28774 19.5141 9.03034 19.5333 14.8136L19.5513 20.2436L20.8032 20.2247C21.9475 20.2074 22.079 20.197 22.3326 20.1034C23.0902 19.8237 23.6843 19.1746 23.925 18.3638C23.9911 18.1412 24.0005 17.7351 24 15.1293C23.9995 12.6654 23.9876 12.1049 23.9309 11.892C23.7471 11.2014 23.2434 10.5791 22.618 10.27C22.2215 10.074 22.2441 10.1221 22.1963 9.37001C22.1233 8.21932 21.7467 6.87198 21.1784 5.7273C19.6777 2.70537 16.8024 0.599334 13.5001 0.103423C13.0195 0.031279 11.577 -0.0268015 11.25 0.0129033ZM5.74109 10.2694C5.54472 10.3549 5.31024 10.6358 5.25075 10.8566C5.21686 10.9825 5.205 12.4019 5.21363 15.2988L5.22633 19.556L5.34174 19.7575C5.70921 20.3993 6.70159 20.339 6.959 19.6593C7.02566 19.4833 7.03222 18.9982 7.02064 15.1227L7.00765 10.7831L6.8787 10.5882C6.80777 10.4811 6.6662 10.3508 6.56415 10.2987C6.34885 10.1889 5.95785 10.1749 5.74109 10.2694ZM17.426 10.301C17.3292 10.3521 17.1921 10.4815 17.1213 10.5885L16.9924 10.7831L16.98 15.1377C16.9681 19.326 16.971 19.5 17.0565 19.6933C17.3446 20.3447 18.3002 20.383 18.6584 19.7575L18.7738 19.556L18.7865 15.2988C18.7951 12.4019 18.7832 10.9825 18.7493 10.8566C18.6883 10.6301 18.4525 10.3526 18.2486 10.2674C18.0274 10.1749 17.6344 10.191 17.426 10.301Z" fill="white"/>
</svg>
