<svg width="301" height="28" viewBox="0 0 301 28" fill="none" xmlns="http://www.w3.org/2000/svg">
<path d="M3.0624 0.438376H24.4992V3.50078H27.5616V12.688H12.2496V18.8128H27.5616V24.9376H24.4992V28H0V3.50078H3.0624V0.438376ZM42.8736 15.7504H45.936V12.688H48.9984V6.56318H45.936V9.62558H42.8736V6.56318H39.8112V12.688H42.8736V15.7504ZM33.6864 0.438376H58.1856V28H48.9984V18.8128H39.8112V28H30.624V3.50078H33.6864V0.438376ZM64.3105 0.438376H88.8097V12.688H70.4353V15.7504H88.8097V24.9376H85.7473V28H61.2481V21.8752H79.6225V18.8128H61.2481V3.50078H64.3105V0.438376ZM94.9345 0.438376H122.496V12.688H113.309V28H101.059V12.688H91.8721V3.50078H94.9345V0.438376ZM128.609 0.438376H150.046V9.62558H137.796V12.688H146.983V15.7504H137.796V18.8128H150.046V28H125.547V3.50078H128.609V0.438376ZM168.432 15.7504H171.495V12.688H174.557V6.56318H171.495V9.62558H168.432V6.56318H165.37V12.688H168.432V15.7504ZM153.12 0.438376H180.682V3.50078H183.744V18.8128H174.557V21.8752H183.744V28H171.495V24.9376H165.37V21.8752H162.307V28H153.12V0.438376ZM189.857 0.438376H217.419V12.688H208.231V28H195.982V12.688H186.795V3.50078H189.857V0.438376ZM232.719 15.7504H235.781V12.688H238.843V6.56318H235.781V9.62558H232.719V6.56318H229.656V12.688H232.719V15.7504ZM223.531 0.438376H248.031V28H238.843V18.8128H229.656V28H220.469V3.50078H223.531V0.438376ZM254.155 0.438376H263.343V15.7504H272.53V28H251.093V3.50078H254.155V0.438376ZM278.649 0.438376H300.086V9.62558H287.836V12.688H297.023V15.7504H287.836V18.8128H300.086V28H275.586V3.50078H278.649V0.438376Z" fill="white"/>
<path d="M48.8764 5.89886H45.9269V8.8483H42.9775V5.89886H39.6067V12.2191H42.9775V15.1685H45.9269V12.2191H48.8764V5.89886Z" fill="#715AB9"/>
<path d="M174.438 6.32021H171.489V9.26964H168.539V6.32021H165.168V12.6404H168.539V15.5899H171.489V12.6404H174.438V6.32021Z" fill="#715AB9"/>
<path d="M238.483 5.89886H235.534V8.8483H232.584V5.89886H229.213V12.2191H232.584V15.1685H235.534V12.2191H238.483V5.89886Z" fill="#715AB9"/>
</svg>
