<svg width="128" height="41" viewBox="0 0 128 41" fill="none" xmlns="http://www.w3.org/2000/svg">
<rect x="1.36111" y="2.17593" width="125.222" height="37.2037" stroke="#715AB9" stroke-width="2.72222"/>
<path d="M104.703 33.4815V8.07407H120.723V10.8971H110.043V19.3662H118.053V22.1893H110.043V30.6584H120.723V33.4815H104.703Z" fill="#715AB9"/>
<path d="M96.693 19.3662V10.8971H91.3531V19.3662H96.693ZM86.0132 33.4815V8.07407H99.3629V10.8971H102.033V19.3662H99.3629V22.1893H102.033V33.4815H96.693V22.1893H91.3531V33.4815H86.0132Z" fill="#715AB9"/>
<path d="M78.0033 22.1893V10.8971H72.6634V22.1893H78.0033ZM67.3235 33.4815V10.8971H69.9934V8.07407H80.6732V10.8971H83.3432V33.4815H78.0033V25.0123H72.6634V33.4815H67.3235Z" fill="#715AB9"/>
<path d="M48.634 33.4815V8.07407H53.9739V19.3662H59.3138V8.07407H64.6537V33.4815H59.3138V22.1893H53.9739V33.4815H48.634Z" fill="#715AB9"/>
<path d="M32.6143 33.4815V30.6584H29.9443V25.0123H35.2842V30.6584H40.6241V22.1893H32.6143V19.3662H29.9443V10.8971H32.6143V8.07407H43.2941V10.8971H45.964V16.5432H40.6241V10.8971H35.2842V19.3662H43.2941V22.1893H45.964V30.6584H43.2941V33.4815H32.6143Z" fill="#715AB9"/>
<path fill-rule="evenodd" clip-rule="evenodd" d="M10.1087 14.1116V14.6145H9.60732H9.10599V15.1174V15.6202H8.63808H8.17017V19.0734V22.5265H8.63808H9.10599V22.9959V23.4652H9.60732H10.1087V23.9681V24.471H10.61H11.1113V24.9739V25.4768H11.5792H12.0471V25.9461V26.4155H12.5485H13.0498V26.9184V27.4212H13.5148H13.9798L13.9994 27.9074L14.0191 28.3935L15.9743 28.4113L17.9295 28.429V27.9251V27.4212H18.4308H18.9321V26.9548V26.4884L19.4168 26.4687L19.9014 26.449L19.921 25.9629L19.9407 25.4768H20.4056H20.8706V24.9739V24.471H21.372H21.8733V23.9681V23.4652H22.3746H22.876V22.9959V22.5265H23.3439H23.8118V19.0734V15.6202H23.3439H22.876V15.1174V14.6145H22.3746H21.8733V14.1451V13.6758H20.4027H18.9321V14.1451V14.6145H18.4308H17.9295V15.1174V15.6202H17.4281H16.9268V16.1249V16.6297L15.9743 16.6111L15.0217 16.5925L15.0032 15.6439L14.9847 14.6953L14.0173 14.6468L13.0498 14.5982V14.1473V13.6963L12.2978 13.6528L11.5458 13.6093L10.8272 13.609L10.1087 13.6087V14.1116Z" fill="#715AB9"/>
</svg>
