<svg width="249" height="249" viewBox="0 0 249 249" fill="none" xmlns="http://www.w3.org/2000/svg">
<rect x="14" y="14" width="222" height="222" rx="50" fill="white"/>
<path fill-rule="evenodd" clip-rule="evenodd" d="M168.5 175.5L182 86C182.4 80.3999 180.833 78.6666 180 78.5C176.4 77.3 171.833 78.6666 170 79.5C133.833 94.5 61.4 124.5 61 124.5C60.6 124.5 59.1667 126.167 58.5 127C56.5 130.6 58.6667 132.167 60 132.5L82 139.5C89.6 141.9 93.5 140.5 94.5 139.5C112 127.833 147.2 104.4 148 104C149 103.5 150.5 103.5 151.5 104C152.3 104.4 151.833 106.167 151.5 107L114 143.5C110 146.7 113 151.5 115 153.5C143.085 174.258 150.295 177.124 155.242 179.091C156.372 179.54 157.384 179.942 158.5 180.5C163.3 182.9 167.167 178.167 168.5 175.5Z" fill="black"/>
</svg>
